<svg xmlns="http://www.w3.org/2000/svg" width="300" height="300" viewBox="0 0 53 53" shape-rendering="crispEdges"><path fill="#f5e6c8" d="M0 0h53v53H0z"/><path stroke="#3e2723" d="M2 2.5h7m1 0h2m2 0h3m1 0h3m6 0h4m2 0h1m2 0h1m1 0h2m2 0h1m1 0h7M2 3.5h1m5 0h1m1 0h1m3 0h1m2 0h1m1 0h2m3 0h1m3 0h2m2 0h1m2 0h1m1 0h1m2 0h3m1 0h1m5 0h1M2 4.5h1m1 0h3m1 0h1m2 0h4m2 0h4m2 0h2m1 0h1m1 0h1m3 0h1m1 0h1m1 0h1m4 0h2m1 0h1m1 0h3m1 0h1M2 5.5h1m1 0h3m1 0h1m1 0h1m3 0h3m2 0h3m1 0h1m2 0h1m4 0h3m1 0h1m3 0h1m1 0h1m2 0h1m1 0h3m1 0h1M2 6.5h1m1 0h3m1 0h1m1 0h3m1 0h3m1 0h1m2 0h2m1 0h5m9 0h1m5 0h1m1 0h3m1 0h1M2 7.5h1m5 0h1m1 0h3m2 0h4m1 0h1m3 0h1m3 0h1m2 0h1m1 0h5m1 0h2m3 0h1m5 0h1M2 8.5h7m1 0h1m1 0h1m1 0h1m1 0h1m1 0h1m1 0h1m1 0h1m1 0h1m1 0h1m1 0h1m1 0h1m1 0h1m1 0h1m1 0h1m1 0h1m1 0h1m1 0h1m1 0h7M11 9.5h5m1 0h3m4 0h1m3 0h3m2 0h1m8 0h1M5 10.5h1m2 0h1m2 0h2m2 0h2m2 0h1m1 0h8m3 0h2m1 0h1m1 0h4m4 0h3m1 0h2M6 11.5h2m7 0h1m1 0h1m2 0h1m2 0h2m1 0h1m1 0h1m1 0h1m1 0h1m8 0h1m4 0h1m2 0h2M2 12.5h2m1 0h5m1 0h1m4 0h5m2 0h1m1 0h3m2 0h4m1 0h2m1 0h2m1 0h1m3 0h6M2 13.5h1m2 0h1m4 0h1m1 0h5m1 0h1m5 0h4m2 0h2m4 0h1m1 0h1m1 0h6m3 0h1M2 14.5h4m2 0h1m5 0h1m1 0h1m2 0h2m1 0h1m1 0h2m4 0h1m1 0h1m2 0h2m1 0h1m1 0h1m2 0h1m1 0h2m2 0h1M2 15.5h1m1 0h1m1 0h1m3 0h1m1 0h2m1 0h1m2 0h6m1 0h1m1 0h2m2 0h2m1 0h1m1 0h4m1 0h2m3 0h1m2 0h2M2 16.5h2m2 0h1m1 0h1m4 0h2m1 0h2m1 0h1m3 0h2m1 0h2m3 0h1m1 0h1m1 0h1m1 0h2m1 0h1m4 0h3m2 0h1M2 17.5h1m2 0h3m1 0h4m4 0h1m1 0h3m5 0h3m1 0h1m1 0h1m2 0h1m1 0h1m1 0h4m1 0h2m3 0h1M3 18.5h2m2 0h5m1 0h1m2 0h1m4 0h3m2 0h1m3 0h1m1 0h3m1 0h1m1 0h2m1 0h1m1 0h2m1 0h1m1 0h3M2 19.5h1m2 0h2m3 0h1m1 0h1m4 0h1m3 0h2m3 0h2m1 0h1m1 0h2m1 0h1m1 0h1m1 0h1m2 0h1m3 0h6M4 20.5h1m1 0h1m1 0h2m1 0h1m3 0h1m1 0h1m2 0h5m1 0h2m1 0h2m1 0h2m2 0h2m2 0h6m2 0h3M2 21.5h2m1 0h2m2 0h2m1 0h1m1 0h1m3 0h2m4 0h1m2 0h1m2 0h3m3 0h1m1 0h6m1 0h2m1 0h1M3 22.5h1m3 0h2m2 0h5m1 0h1m1 0h8m1 0h2m2 0h1m3 0h1m1 0h3m2 0h3m1 0h1M2 23.5h3m1 0h2m1 0h3m2 0h1m2 0h1m1 0h2m2 0h1m4 0h4m1 0h2m2 0h1m1 0h1m5 0h1m3 0h2M2 24.5h3m1 0h8m1 0h1m1 0h1m1 0h3m1 0h6m1 0h5m1 0h1m1 0h2m2 0h5m1 0h3M3 25.5h1m1 0h2m3 0h1m1 0h1m1 0h1m1 0h2m2 0h1m1 0h1m1 0h1m3 0h2m1 0h2m1 0h1m1 0h3m2 0h2m3 0h1M2 26.5h5m1 0h1m1 0h2m1 0h2m1 0h1m1 0h1m1 0h1m1 0h3m1 0h1m1 0h1m1 0h3m1 0h1m2 0h6m1 0h1m1 0h1M4 27.5h1m1 0h1m3 0h3m1 0h3m2 0h1m1 0h2m1 0h1m3 0h2m1 0h1m1 0h1m2 0h2m1 0h1m1 0h2m3 0h1m1 0h3M2 28.5h1m1 0h1m1 0h6m1 0h2m2 0h12m6 0h1m1 0h2m1 0h1m1 0h7m1 0h1M3 29.5h1m1 0h1m3 0h1m2 0h2m4 0h3m2 0h1m2 0h3m3 0h1m1 0h1m1 0h1m1 0h1m1 0h1m1 0h1m1 0h1m4 0h1M4 30.5h5m1 0h4m1 0h4m2 0h3m3 0h1m1 0h1m2 0h1m1 0h1m1 0h3m3 0h2m1 0h6M2 31.5h2m2 0h2m2 0h5m1 0h1m2 0h2m1 0h3m1 0h2m2 0h2m5 0h2m1 0h3m5 0h1m1 0h1M8 32.5h2m5 0h3m2 0h2m1 0h1m1 0h3m1 0h1m1 0h1m2 0h1m2 0h1m5 0h2m3 0h3M3 33.5h4m2 0h2m1 0h7m2 0h1m1 0h1m1 0h1m1 0h2m1 0h1m4 0h3m2 0h1m2 0h8M2 34.5h1m4 0h2m1 0h2m1 0h1m2 0h4m3 0h1m2 0h1m1 0h3m1 0h3m4 0h2m3 0h1m1 0h1M3 35.5h1m1 0h1m1 0h1m1 0h3m1 0h1m2 0h1m3 0h8m2 0h5m2 0h2m2 0h3m5 0h2M6 36.5h1m1 0h2m1 0h1m2 0h1m2 0h1m3 0h5m1 0h1m3 0h2m3 0h2m1 0h1m2 0h3m1 0h2m1 0h2M3 37.5h1m2 0h2m3 0h1m1 0h2m4 0h2m1 0h8m5 0h1m1 0h2m3 0h1m1 0h1m2 0h1M4 38.5h1m2 0h2m3 0h1m1 0h1m3 0h2m2 0h2m1 0h2m1 0h2m2 0h3m1 0h4m7 0h1m1 0h2M3 39.5h2m2 0h1m1 0h1m2 0h2m1 0h2m3 0h1m1 0h2m1 0h2m4 0h3m2 0h1m1 0h2m1 0h1m1 0h1m1 0h1m3 0h2M3 40.5h1m3 0h3m3 0h1m1 0h4m1 0h1m7 0h1m5 0h1m5 0h1m3 0h3m1 0h1m1 0h1M3 41.5h3m3 0h3m3 0h1m1 0h3m1 0h1m2 0h2m5 0h1m1 0h3m1 0h3m3 0h3m1 0h1M2 42.5h3m3 0h2m2 0h1m4 0h2m1 0h1m1 0h1m1 0h6m1 0h1m2 0h2m1 0h2m1 0h1m1 0h5m3 0h1M10 43.5h3m1 0h2m2 0h1m1 0h1m2 0h2m3 0h1m1 0h1m1 0h1m1 0h2m1 0h1m1 0h2m1 0h1m3 0h1m3 0h1M2 44.5h7m3 0h2m2 0h1m1 0h1m3 0h1m1 0h1m1 0h1m1 0h5m1 0h3m2 0h4m1 0h1m1 0h1m1 0h1m1 0h1M2 45.5h1m5 0h1m6 0h1m2 0h1m1 0h3m1 0h1m3 0h1m1 0h1m2 0h2m1 0h1m1 0h5m3 0h1m1 0h3M2 46.5h1m1 0h3m1 0h1m2 0h1m1 0h1m1 0h2m1 0h3m2 0h8m1 0h2m1 0h2m1 0h3m1 0h6m1 0h2M2 47.5h1m1 0h3m1 0h1m1 0h2m1 0h1m1 0h1m1 0h1m1 0h1m2 0h3m3 0h2m1 0h1m1 0h1m7 0h1m3 0h3m1 0h1M2 48.5h1m1 0h3m1 0h1m2 0h1m1 0h2m1 0h2m3 0h5m3 0h1m2 0h2m1 0h2m1 0h2m1 0h7m1 0h2M2 49.5h1m5 0h1m2 0h1m4 0h1m1 0h3m3 0h2m1 0h1m3 0h3m1 0h1m1 0h7M2 50.5h7m3 0h4m2 0h1m1 0h1m1 0h1m2 0h3m4 0h3m1 0h6m1 0h1m2 0h1m2 0h2"/></svg>
