<svg xmlns="http://www.w3.org/2000/svg" width="300" height="300" viewBox="0 0 53 53" shape-rendering="crispEdges"><path fill="#f5e6c8" d="M0 0h53v53H0z"/><path stroke="#3e2723" d="M2 2.5h7m4 0h2m1 0h3m1 0h2m1 0h2m1 0h1m2 0h3m3 0h4m3 0h1m1 0h7M2 3.5h1m5 0h1m2 0h3m1 0h2m1 0h1m2 0h4m3 0h3m1 0h2m2 0h1m1 0h5m1 0h1m5 0h1M2 4.5h1m1 0h3m1 0h1m1 0h1m1 0h1m1 0h2m2 0h1m1 0h2m2 0h5m1 0h8m1 0h1m1 0h2m1 0h1m1 0h3m1 0h1M2 5.5h1m1 0h3m1 0h1m1 0h4m3 0h2m3 0h4m1 0h2m4 0h1m2 0h3m2 0h1m2 0h1m1 0h3m1 0h1M2 6.5h1m1 0h3m1 0h1m3 0h3m1 0h4m2 0h1m1 0h8m1 0h1m1 0h1m1 0h3m4 0h1m1 0h3m1 0h1M2 7.5h1m5 0h1m2 0h1m1 0h4m3 0h5m3 0h3m1 0h1m5 0h1m1 0h1m3 0h1m5 0h1M2 8.5h7m1 0h1m1 0h1m1 0h1m1 0h1m1 0h1m1 0h1m1 0h1m1 0h1m1 0h1m1 0h1m1 0h1m1 0h1m1 0h1m1 0h1m1 0h1m1 0h1m1 0h1m1 0h7M11 9.5h2m8 0h4m3 0h1m2 0h2m1 0h8M5 10.5h2m1 0h2m1 0h1m1 0h1m3 0h1m1 0h1m2 0h1m1 0h6m1 0h2m5 0h1m1 0h2m5 0h2M2 11.5h1m1 0h2m3 0h3m1 0h3m2 0h1m2 0h2m2 0h1m1 0h1m1 0h1m1 0h1m1 0h8m1 0h4m1 0h2M2 12.5h1m1 0h1m1 0h1m1 0h1m4 0h1m1 0h1m2 0h1m1 0h2m4 0h1m2 0h2m1 0h1m3 0h3m4 0h1m2 0h1m1 0h1m1 0h1M3 13.5h3m3 0h1m2 0h1m2 0h1m1 0h1m1 0h5m4 0h2m2 0h6m5 0h2m1 0h3m1 0h1M2 14.5h3m1 0h4m1 0h1m1 0h1m3 0h1m5 0h2m2 0h1m1 0h5m4 0h2m1 0h1m4 0h2M3 15.5h1m1 0h3m1 0h1m1 0h1m1 0h1m2 0h3m5 0h1m1 0h1m2 0h2m2 0h1m6 0h1m2 0h3m2 0h1M2 16.5h1m2 0h1m2 0h2m1 0h1m2 0h4m6 0h3m2 0h1m5 0h1m1 0h1m2 0h2m1 0h1m2 0h1m1 0h3M3 17.5h2m2 0h1m7 0h3m3 0h1m1 0h4m3 0h1m1 0h1m1 0h2m1 0h1m1 0h1m4 0h1m2 0h3M4 18.5h2m2 0h1m1 0h1m2 0h5m1 0h1m1 0h1m3 0h3m1 0h4m1 0h5m5 0h3m1 0h1m1 0h1M3 19.5h2m2 0h1m1 0h1m1 0h1m3 0h3m1 0h2m1 0h4m2 0h1m1 0h1m2 0h1m1 0h1m1 0h1m1 0h2m1 0h3M3 20.5h4m1 0h1m5 0h1m2 0h1m1 0h3m2 0h3m3 0h3m2 0h2m2 0h2m1 0h1m1 0h1m2 0h2m1 0h1M4 21.5h1m2 0h1m3 0h1m3 0h2m1 0h1m1 0h4m1 0h2m1 0h2m1 0h5m1 0h1m6 0h1m2 0h1m1 0h2M5 22.5h1m2 0h2m2 0h1m1 0h1m5 0h1m1 0h1m1 0h1m1 0h3m2 0h1m1 0h1m1 0h4m1 0h1m3 0h1m4 0h1M5 23.5h1m6 0h2m1 0h2m1 0h1m2 0h2m1 0h4m7 0h2m1 0h1m1 0h5m1 0h3M2 24.5h1m1 0h7m1 0h1m7 0h1m3 0h8m2 0h5m3 0h7m1 0h1M2 25.5h1m1 0h1m1 0h1m3 0h2m1 0h1m1 0h1m2 0h2m1 0h1m1 0h2m3 0h3m2 0h1m1 0h1m3 0h4m3 0h5M2 26.5h1m1 0h1m1 0h1m1 0h1m1 0h1m3 0h9m1 0h1m1 0h1m1 0h3m1 0h4m2 0h1m1 0h1m1 0h1m1 0h1m1 0h2m1 0h1M2 27.5h2m1 0h2m3 0h1m2 0h1m3 0h2m1 0h1m2 0h2m3 0h1m2 0h1m2 0h2m2 0h1m1 0h3m3 0h2m1 0h1M2 28.5h9m3 0h2m2 0h1m1 0h1m1 0h1m1 0h5m1 0h2m1 0h1m4 0h9m1 0h3M2 29.5h1m1 0h1m1 0h2m2 0h2m2 0h4m3 0h2m1 0h2m3 0h1m1 0h1m3 0h1m1 0h1m1 0h1m1 0h1m1 0h1m1 0h6M3 30.5h1m1 0h2m1 0h2m2 0h1m3 0h1m1 0h2m2 0h2m3 0h10m1 0h2m1 0h2m3 0h1m1 0h3M4 31.5h1m4 0h2m4 0h1m1 0h2m2 0h1m5 0h3m2 0h1m2 0h2m2 0h1m3 0h5m1 0h1M3 32.5h2m2 0h2m4 0h1m2 0h1m8 0h2m3 0h1m4 0h1m3 0h1m1 0h1m2 0h2m1 0h2m1 0h1M2 33.5h4m1 0h1m1 0h3m7 0h1m2 0h1m5 0h2m1 0h4m3 0h2m1 0h2M2 34.5h1m1 0h2m2 0h3m1 0h1m3 0h1m1 0h2m1 0h1m2 0h1m1 0h3m1 0h3m1 0h2m1 0h1m2 0h2m1 0h2m1 0h2m1 0h1M3 35.5h1m2 0h1m4 0h2m1 0h1m1 0h5m3 0h2m1 0h3m5 0h2m2 0h2m3 0h5M2 36.5h3m1 0h4m3 0h2m5 0h1m1 0h3m1 0h1m1 0h2m2 0h2m1 0h2m4 0h2m1 0h3m3 0h1M3 37.5h1m1 0h1m3 0h1m1 0h2m3 0h3m2 0h1m2 0h5m1 0h3m1 0h2m1 0h1m1 0h1m1 0h1m1 0h1m1 0h2m1 0h3M2 38.5h1m1 0h2m2 0h2m2 0h3m1 0h1m2 0h1m1 0h1m4 0h3m2 0h2m1 0h1m1 0h1m1 0h4m1 0h1m1 0h1m4 0h1M2 39.5h1m2 0h2m3 0h2m3 0h1m2 0h2m2 0h1m1 0h1m2 0h4m4 0h1m1 0h2m1 0h1m1 0h1m1 0h1m1 0h1M3 40.5h1m3 0h2m2 0h1m1 0h2m1 0h1m2 0h2m2 0h1m1 0h1m1 0h3m1 0h1m1 0h1m1 0h1m3 0h3m1 0h2m1 0h1m2 0h2M3 41.5h3m6 0h3m1 0h3m1 0h4m2 0h5m1 0h1m3 0h1m3 0h3m3 0h1m1 0h3M2 42.5h3m3 0h1m2 0h2m1 0h2m3 0h3m1 0h6m4 0h2m3 0h10m1 0h2M10 43.5h1m5 0h4m1 0h2m1 0h1m3 0h2m1 0h1m1 0h1m2 0h1m1 0h1m2 0h2m3 0h4M2 44.5h7m1 0h3m1 0h6m1 0h1m1 0h2m1 0h1m1 0h1m1 0h1m1 0h3m1 0h2m2 0h1m1 0h1m1 0h1m1 0h5M2 45.5h1m5 0h1m2 0h2m3 0h2m1 0h1m1 0h4m3 0h2m1 0h2m2 0h1m1 0h1m4 0h1m3 0h2M2 46.5h1m1 0h3m1 0h1m1 0h1m5 0h3m1 0h2m2 0h5m1 0h1m1 0h1m3 0h3m1 0h7m3 0h1M2 47.5h1m1 0h3m1 0h1m1 0h1m1 0h1m1 0h1m1 0h1m1 0h1m1 0h2m3 0h3m2 0h2m2 0h7m1 0h1m1 0h1m3 0h1m1 0h1M2 48.5h1m1 0h3m1 0h1m5 0h3m2 0h1m2 0h1m1 0h1m2 0h1m3 0h1m4 0h3m3 0h3m1 0h1m3 0h1M2 49.5h1m5 0h1m3 0h4m1 0h1m3 0h3m2 0h1m1 0h2m2 0h1m1 0h1m1 0h1m7 0h7M2 50.5h7m2 0h2m1 0h1m2 0h7m2 0h1m2 0h2m1 0h1m1 0h3m1 0h1m1 0h1m2 0h1m1 0h3m2 0h1"/></svg>
